<svg width="32" height="32" viewBox="0 0 576 512" xmlns="http://www.w3.org/2000/svg" role="img" aria-label="Airplane">
  <path fill="#c08a2a" d="M480 192H365.7L260.6 8.8C258.2 4.6 253.7 2 248.8 2h-24.2c-6.7 0-12.1 5.4-12.1 12.1 0 1.4.3 2.8.8 4.1L269.5 192H144L104 144H40c-8.8 0-16 7.2-16 16 0 2.8.8 5.6 2.3 8L96 288 26.3 408c-1.5 2.4-2.3 5.2-2.3 8 0 8.8 7.2 16 16 16h64l40-48h125.5L213.3 493.8c-.5 1.3-.8 2.7-.8 4.1 0 6.7 5.4 12.1 12.1 12.1h24.2c4.9 0 9.4-2.6 11.8-6.8L365.7 320H480c52.9 0 96-43.1 96-96s-43.1-96-96-96z"/>
</svg>
